<svg width="61" height="60" viewBox="0 0 61 60" fill="none" xmlns="http://www.w3.org/2000/svg">
<path d="M53 24.375H51.0383C50.5672 19.2536 48.1996 14.493 44.4001 11.0269C40.6005 7.56083 35.643 5.63934 30.5 5.63934C25.357 5.63934 20.3995 7.56083 16.5999 11.0269C12.8004 14.493 10.4328 19.2536 9.96172 24.375H8C7.50272 24.375 7.02581 24.5725 6.67417 24.9242C6.32254 25.2758 6.125 25.7527 6.125 26.25C6.13324 30.709 7.36037 35.081 9.6737 38.893C11.987 42.705 15.2985 45.8121 19.25 47.8781V48.75C19.25 49.7446 19.6451 50.6984 20.3484 51.4016C21.0516 52.1049 22.0054 52.5 23 52.5H38C38.9946 52.5 39.9484 52.1049 40.6516 51.4016C41.3549 50.6984 41.75 49.7446 41.75 48.75V47.8781C45.7015 45.8121 49.013 42.705 51.3263 38.893C53.6396 35.081 54.8668 30.709 54.875 26.25C54.875 25.7527 54.6775 25.2758 54.3258 24.9242C53.9742 24.5725 53.4973 24.375 53 24.375ZM47.2672 24.375H35.2156C37.4889 20.9646 40.928 18.5004 44.8883 17.4445C46.1831 19.5507 46.9956 21.9176 47.2672 24.375ZM41.1594 13.1789C41.5891 13.5305 42.0008 13.9016 42.3945 14.2922C37.4032 16.048 33.2785 19.6566 30.875 24.3703H23.9609C25.1328 21.0854 27.2903 18.2424 30.1387 16.2296C32.987 14.2169 36.3873 13.1327 39.875 13.125C40.3039 13.125 40.7328 13.1461 41.1594 13.1789ZM30.5 9.375C32.0046 9.37599 33.5023 9.57858 34.9531 9.97734C31.4198 10.8538 28.1799 12.6463 25.56 15.174C22.9402 17.7016 21.0329 20.8753 20.0305 24.375H13.7328C14.1979 20.252 16.164 16.4444 19.2563 13.678C22.3487 10.9116 26.3509 9.37993 30.5 9.375ZM39.0922 45C38.7651 45.1503 38.4882 45.3915 38.2945 45.6949C38.1009 45.9983 37.9986 46.351 38 46.7109V48.75H23V46.7109C23.0014 46.351 22.8991 45.9983 22.7055 45.6949C22.5118 45.3915 22.2349 45.1503 21.9078 45C18.6104 43.4827 15.7702 41.1247 13.6721 38.1627C11.5741 35.2008 10.292 31.739 9.95469 28.125H51.0383C50.7016 31.7383 49.4206 35.1995 47.3238 38.1614C45.2271 41.1233 42.3883 43.4817 39.0922 45Z" fill="#EB5757"/>
</svg>
