<svg width="40" height="40" viewBox="0 0 40 40" fill="none" xmlns="http://www.w3.org/2000/svg">
<path d="M11.25 13.75V6.25002C11.25 5.9185 11.3817 5.60055 11.6161 5.36613C11.8505 5.13171 12.1685 5.00002 12.5 5.00002C12.8315 5.00002 13.1495 5.13171 13.3839 5.36613C13.6183 5.60055 13.75 5.9185 13.75 6.25002V13.75C13.75 14.0815 13.6183 14.3995 13.3839 14.6339C13.1495 14.8683 12.8315 15 12.5 15C12.1685 15 11.8505 14.8683 11.6161 14.6339C11.3817 14.3995 11.25 14.0815 11.25 13.75ZM33.75 6.25002V35C33.75 35.3315 33.6183 35.6495 33.3839 35.8839C33.1495 36.1183 32.8315 36.25 32.5 36.25C32.1685 36.25 31.8505 36.1183 31.6161 35.8839C31.3817 35.6495 31.25 35.3315 31.25 35V27.5H23.75C23.4185 27.5 23.1005 27.3683 22.8661 27.1339C22.6317 26.8995 22.5 26.5815 22.5 26.25C22.558 23.2558 22.9362 20.2763 23.6281 17.3625C25.1562 11.036 28.0531 6.79533 32.0078 5.10158C32.1979 5.02016 32.4052 4.98716 32.6112 5.00555C32.8171 5.02394 33.0153 5.09314 33.188 5.20695C33.3606 5.32076 33.5023 5.47562 33.6004 5.65766C33.6985 5.8397 33.7499 6.04323 33.75 6.25002ZM31.25 8.42189C26.2234 12.261 25.2391 21.6125 25.0469 25H31.25V8.42189ZM18.7328 6.04533C18.7083 5.8812 18.6514 5.72358 18.5654 5.58168C18.4793 5.43977 18.3659 5.31642 18.2317 5.21881C18.0975 5.12121 17.9452 5.0513 17.7837 5.01317C17.6222 4.97505 17.4547 4.96946 17.291 4.99674C17.1273 5.02403 16.9707 5.08363 16.8303 5.17208C16.6898 5.26052 16.5685 5.37605 16.4732 5.5119C16.3779 5.64776 16.3106 5.80123 16.2752 5.96337C16.2398 6.12551 16.2371 6.29307 16.2672 6.45627L17.5 13.8485C17.5 15.1745 16.9732 16.4463 16.0355 17.384C15.0978 18.3217 13.8261 18.8485 12.5 18.8485C11.1739 18.8485 9.90214 18.3217 8.96446 17.384C8.02678 16.4463 7.5 15.1745 7.5 13.8485L8.73125 6.45627C8.76132 6.29307 8.7586 6.12551 8.72324 5.96337C8.68787 5.80123 8.62058 5.64776 8.52528 5.5119C8.42998 5.37605 8.30858 5.26052 8.16817 5.17208C8.02776 5.08363 7.87113 5.02403 7.70744 4.99674C7.54375 4.96946 7.37627 4.97505 7.21476 5.01317C7.05325 5.0513 6.90095 5.12121 6.76674 5.21881C6.63253 5.31642 6.51909 5.43977 6.43306 5.58168C6.34702 5.72358 6.2901 5.8812 6.26562 6.04533L5.01562 13.5453C5.00493 13.613 4.9997 13.6815 5 13.75C5.00249 15.5216 5.63112 17.2353 6.77479 18.5882C7.91846 19.9412 9.50356 20.8464 11.25 21.1438V35C11.25 35.3315 11.3817 35.6495 11.6161 35.8839C11.8505 36.1183 12.1685 36.25 12.5 36.25C12.8315 36.25 13.1495 36.1183 13.3839 35.8839C13.6183 35.6495 13.75 35.3315 13.75 35V21.1438C15.4964 20.8464 17.0815 19.9412 18.2252 18.5882C19.3689 17.2353 19.9975 15.5216 20 13.75C19.9998 13.6814 19.994 13.613 19.9828 13.5453L18.7328 6.04533Z" fill="#333333"/>
</svg>
