<svg width="32" height="32" viewBox="0 0 32 32" fill="none" xmlns="http://www.w3.org/2000/svg">
<path d="M29.2862 14.3562L23.6612 19.21L25.3749 26.4687C25.4695 26.8628 25.4451 27.276 25.305 27.6562C25.1648 28.0364 24.9151 28.3666 24.5873 28.6049C24.2596 28.8433 23.8686 28.9792 23.4637 28.9954C23.0588 29.0117 22.6582 28.9076 22.3124 28.6962L15.9999 24.8112L9.68367 28.6962C9.33796 28.9063 8.9378 29.0095 8.5336 28.9926C8.12939 28.9758 7.7392 28.8397 7.41217 28.6015C7.08514 28.3634 6.83589 28.0338 6.6958 27.6543C6.55571 27.2747 6.53105 26.8622 6.62492 26.4687L8.34492 19.21L2.71992 14.3562C2.41404 14.0919 2.19283 13.7432 2.0839 13.3539C1.97497 12.9646 1.98316 12.5518 2.10744 12.1671C2.23172 11.7824 2.46659 11.4428 2.78271 11.1908C3.09883 10.9387 3.48219 10.7854 3.88492 10.75L11.2599 10.155L14.1049 3.26998C14.2589 2.89475 14.521 2.57379 14.8579 2.3479C15.1948 2.12201 15.5912 2.0014 15.9968 2.0014C16.4024 2.0014 16.7988 2.12201 17.1357 2.3479C17.4726 2.57379 17.7347 2.89475 17.8887 3.26998L20.7324 10.155L28.1074 10.75C28.511 10.7841 28.8954 10.9366 29.2127 11.1882C29.53 11.4399 29.7659 11.7796 29.891 12.1648C30.016 12.55 30.0246 12.9635 29.9157 13.3535C29.8068 13.7436 29.5852 14.0928 29.2787 14.3575L29.2862 14.3562Z" fill="#EB5757"/>
</svg>
