<svg width="61" height="60" viewBox="0 0 61 60" fill="none" xmlns="http://www.w3.org/2000/svg">
<path d="M30.5 5.625C25.6791 5.625 20.9664 7.05457 16.958 9.73293C12.9495 12.4113 9.82533 16.2181 7.98045 20.6721C6.13556 25.126 5.65286 30.027 6.59337 34.7553C7.53388 39.4836 9.85538 43.8268 13.2643 47.2357C16.6732 50.6446 21.0164 52.9661 25.7447 53.9066C30.473 54.8471 35.374 54.3644 39.8279 52.5196C44.2819 50.6747 48.0887 47.5505 50.7671 43.542C53.4454 39.5336 54.875 34.8209 54.875 30C54.8682 23.5374 52.2979 17.3415 47.7282 12.7718C43.1585 8.20209 36.9626 5.63182 30.5 5.625ZM30.5 50.625C26.4208 50.625 22.4331 49.4154 19.0414 47.1491C15.6496 44.8828 13.0061 41.6616 11.445 37.8928C9.88394 34.1241 9.47549 29.9771 10.2713 25.9763C11.0671 21.9754 13.0315 18.3004 15.9159 15.4159C18.8004 12.5315 22.4754 10.5671 26.4763 9.7713C30.4771 8.97548 34.6241 9.38393 38.3929 10.945C42.1616 12.506 45.3828 15.1496 47.6491 18.5414C49.9154 21.9331 51.125 25.9208 51.125 30C51.1188 35.4682 48.9438 40.7106 45.0772 44.5772C41.2106 48.4438 35.9682 50.6188 30.5 50.625ZM46.625 28.5L35.375 20.0625C35.0964 19.8536 34.7652 19.7263 34.4184 19.6951C34.0716 19.6638 33.7229 19.7297 33.4115 19.8854C33.1 20.0412 32.8381 20.2805 32.655 20.5768C32.472 20.873 32.375 21.2143 32.375 21.5625V38.4375C32.375 38.7857 32.472 39.127 32.655 39.4232C32.8381 39.7194 33.1 39.9588 33.4115 40.1145C33.7229 40.2703 34.0716 40.3362 34.4184 40.3049C34.7652 40.2737 35.0964 40.1464 35.375 39.9375L46.625 31.5C46.8579 31.3253 47.0469 31.0989 47.1771 30.8385C47.3072 30.5782 47.375 30.2911 47.375 30C47.375 29.7089 47.3072 29.4218 47.1771 29.1615C47.0469 28.9011 46.8579 28.6746 46.625 28.5ZM36.125 34.6875V25.3125L42.3758 30L36.125 34.6875ZM31.625 28.5L20.375 20.0625C20.0964 19.8536 19.7652 19.7263 19.4184 19.6951C19.0716 19.6638 18.7229 19.7297 18.4115 19.8854C18.1 20.0412 17.8381 20.2805 17.655 20.5768C17.472 20.873 17.375 21.2143 17.375 21.5625V38.4375C17.375 38.7857 17.472 39.127 17.655 39.4232C17.8381 39.7194 18.1 39.9588 18.4115 40.1145C18.7229 40.2703 19.0716 40.3362 19.4184 40.3049C19.7652 40.2737 20.0964 40.1464 20.375 39.9375L31.625 31.5C31.8579 31.3253 32.0469 31.0989 32.1771 30.8385C32.3072 30.5782 32.375 30.2911 32.375 30C32.375 29.7089 32.3072 29.4218 32.1771 29.1615C32.0469 28.9011 31.8579 28.6746 31.625 28.5ZM21.125 34.6875V25.3125L27.3758 30L21.125 34.6875Z" fill="#EB5757"/>
</svg>
