<svg width="61" height="60" viewBox="0 0 61 60" fill="none" xmlns="http://www.w3.org/2000/svg">
<path d="M54.875 22.5C54.876 22.3257 54.8523 22.1521 54.8047 21.9844L51.4414 10.2187C51.2153 9.43808 50.7428 8.75148 50.0944 8.26147C49.446 7.77146 48.6565 7.50434 47.8437 7.5H13.1563C12.3435 7.50434 11.554 7.77146 10.9056 8.26147C10.2572 8.75148 9.78465 9.43808 9.5586 10.2187L6.19766 21.9844C6.14924 22.152 6.12478 22.3256 6.125 22.5V26.25C6.125 27.7054 6.46386 29.1409 7.11475 30.4426C7.76563 31.7444 8.71066 32.8767 9.875 33.75V50.625C9.875 51.1223 10.0725 51.5992 10.4242 51.9508C10.7758 52.3025 11.2527 52.5 11.75 52.5H49.25C49.7473 52.5 50.2242 52.3025 50.5758 51.9508C50.9275 51.5992 51.125 51.1223 51.125 50.625V33.75C52.2893 32.8767 53.2344 31.7444 53.8853 30.4426C54.5361 29.1409 54.875 27.7054 54.875 26.25V22.5ZM13.1563 11.25H47.8437L50.5203 20.625H10.4867L13.1563 11.25ZM24.875 24.375H36.125V26.25C36.125 27.7418 35.5324 29.1726 34.4775 30.2275C33.4226 31.2824 31.9918 31.875 30.5 31.875C29.0082 31.875 27.5774 31.2824 26.5225 30.2275C25.4676 29.1726 24.875 27.7418 24.875 26.25V24.375ZM21.125 24.375V26.25C21.1247 27.2173 20.8749 28.1681 20.3998 29.0107C19.9248 29.8533 19.2404 30.5591 18.413 31.06C17.5855 31.5609 16.6428 31.84 15.676 31.8703C14.7092 31.9005 13.7509 31.681 12.8938 31.2328C12.7633 31.1313 12.6199 31.0477 12.4672 30.9844C11.6728 30.4758 11.0191 29.7757 10.5661 28.9484C10.1132 28.1211 9.8755 27.1932 9.875 26.25V24.375H21.125ZM47.375 48.75H13.625V35.4375C14.2423 35.5619 14.8703 35.6247 15.5 35.625C16.9554 35.625 18.3909 35.2861 19.6926 34.6353C20.9944 33.9844 22.1267 33.0393 23 31.875C23.8733 33.0393 25.0056 33.9844 26.3074 34.6353C27.6091 35.2861 29.0446 35.625 30.5 35.625C31.9554 35.625 33.3909 35.2861 34.6926 34.6353C35.9944 33.9844 37.1267 33.0393 38 31.875C38.8733 33.0393 40.0056 33.9844 41.3074 34.6353C42.6091 35.2861 44.0446 35.625 45.5 35.625C46.1297 35.6247 46.7577 35.5619 47.375 35.4375V48.75ZM48.5305 30.9844C48.3798 31.0479 48.238 31.1306 48.1086 31.2305C47.2515 31.6791 46.2932 31.8991 45.3262 31.8692C44.3593 31.8393 43.4164 31.5606 42.5886 31.0599C41.7609 30.5592 41.0763 29.8535 40.6009 29.0109C40.1256 28.1683 39.8755 27.2174 39.875 26.25V24.375H51.125V26.25C51.1242 27.1934 50.8862 28.1215 50.4328 28.9488C49.9794 29.7761 49.3253 30.4761 48.5305 30.9844Z" fill="#EB5757"/>
</svg>
