<svg width="46" height="46" viewBox="0 0 46 46" fill="none" xmlns="http://www.w3.org/2000/svg">
<rect x="19.3125" y="19.3005" width="26" height="26" rx="7" fill="#EB9D9D"/>
<path d="M39.0625 15.613H37.4277C37.0351 11.3452 35.0622 7.37805 31.8959 4.48964C28.7296 1.60123 24.5983 0 20.3125 0C16.0267 0 11.8954 1.60123 8.72912 4.48964C5.56281 7.37805 3.58987 11.3452 3.19727 15.613H1.5625C1.1481 15.613 0.750671 15.7777 0.457646 16.0707C0.16462 16.3637 0 16.7611 0 17.1755C0.00686524 20.8914 1.02948 24.5347 2.95725 27.7114C4.88502 30.8881 7.64458 33.4773 10.9375 35.199V35.9255C10.9375 36.7543 11.2667 37.5492 11.8528 38.1353C12.4388 38.7213 13.2337 39.0505 14.0625 39.0505H26.5625C27.3913 39.0505 28.1862 38.7213 28.7722 38.1353C29.3583 37.5492 29.6875 36.7543 29.6875 35.9255V35.199C32.9804 33.4773 35.74 30.8881 37.6678 27.7114C39.5955 24.5347 40.6181 20.8914 40.625 17.1755C40.625 16.7611 40.4604 16.3637 40.1674 16.0707C39.8743 15.7777 39.4769 15.613 39.0625 15.613ZM34.2852 15.613H24.2422C26.1366 12.771 29.0025 10.7176 32.3027 9.83765C33.3818 11.5928 34.0588 13.5652 34.2852 15.613ZM29.1953 6.28297C29.5534 6.57594 29.8965 6.88518 30.2246 7.2107C26.0652 8.67389 22.6279 11.681 20.625 15.6091H14.8633C15.8399 12.8717 17.6378 10.5025 20.0114 8.82524C22.385 7.14798 25.2186 6.24443 28.125 6.23804C28.4824 6.23804 28.8398 6.25562 29.1953 6.28297ZM20.3125 3.11304C21.5663 3.11387 22.8144 3.28269 24.0234 3.615C21.079 4.34541 18.3791 5.8391 16.1959 7.94551C14.0126 10.0519 12.4233 12.6966 11.5879 15.613H6.33984C6.72743 12.1772 8.36586 9.0042 10.9428 6.69887C13.5197 4.39354 16.8549 3.11716 20.3125 3.11304ZM27.4727 32.8005C27.2001 32.9258 26.9694 33.1268 26.808 33.3796C26.6466 33.6324 26.5614 33.9264 26.5625 34.2263V35.9255H14.0625V34.2263C14.0636 33.9264 13.9784 33.6324 13.817 33.3796C13.6557 33.1268 13.4249 32.9258 13.1523 32.8005C10.4045 31.5361 8.03765 29.5711 6.28927 27.1028C4.54089 24.6345 3.47253 21.7497 3.19141 18.738H37.4277C37.1472 21.7491 36.0797 24.6335 34.3324 27.1017C32.5851 29.57 30.2194 31.5353 27.4727 32.8005Z" fill="black"/>
<path d="M26.2578 24.3328C26.6278 24.2709 27.0082 24.2986 27.3662 24.4158L27.3652 24.4168L40.7061 28.7712L40.7129 28.7732L40.3955 29.7224L40.7129 28.7742C41.1589 28.9234 41.5492 29.2038 41.833 29.5789L41.9346 29.7234C42.1561 30.0675 42.2832 30.4649 42.3027 30.8757L42.3047 31.0525C42.2948 31.4033 42.2063 31.7477 42.0449 32.0593L41.958 32.2117C41.7109 32.612 41.3481 32.9292 40.918 33.1199L40.8994 33.1277L40.8799 33.1355L40.8516 33.1462L40.8438 33.1492L38.1006 34.2029L41.7266 37.8279L41.8594 37.9744C42.1511 38.3303 42.3125 38.7778 42.3125 39.242C42.3125 39.7061 42.1511 40.1536 41.8594 40.5095L41.7266 40.656L40.6689 41.7136C40.4834 41.8994 40.263 42.0465 40.0205 42.1472C39.7775 42.2481 39.5171 42.3005 39.2539 42.3005C38.9907 42.3005 38.7294 42.2482 38.4863 42.1472C38.2439 42.0465 38.0234 41.8994 37.8379 41.7136L34.2129 38.0886L33.1621 40.8298L33.1592 40.8386L33.1484 40.866L33.1426 40.8806L33.1367 40.8943C32.9796 41.2602 32.7314 41.5789 32.417 41.8201L32.2783 41.9187C31.8987 42.1678 31.454 42.2986 31 42.2976V42.2986H30.9141L30.8936 42.2976C30.419 42.2777 29.9616 42.1131 29.584 41.825C29.2063 41.5367 28.9256 41.139 28.7812 40.6863V40.6853L24.4277 27.3543L24.3828 27.199C24.2912 26.8357 24.2886 26.4546 24.376 26.0886L24.4189 25.9334C24.5311 25.5754 24.7288 25.2495 24.9951 24.9832L25.1123 24.8728C25.3952 24.6266 25.7343 24.4515 26.1006 24.364L26.2578 24.3328Z" fill="white" stroke="black" stroke-width="2"/>
</svg>
